<svg width="516" height="514" viewBox="0 0 516 514" fill="none" xmlns="http://www.w3.org/2000/svg">
<path d="M166.177 346.953C206.236 387.894 270.338 398.243 322.23 368.283C374.122 338.323 397.211 277.635 381.785 222.472L495.683 156.713C545.08 274.011 499.92 412.92 385.981 478.703C272.041 544.486 129.164 514.141 52.2789 412.713L166.177 346.953Z" fill="white"/>
<path d="M224.265 202.565C254.876 184.892 294.018 195.38 311.691 225.99C329.364 256.601 318.876 295.743 288.265 313.416C257.655 331.089 218.513 320.601 200.84 289.99C183.167 259.38 193.655 220.238 224.265 202.565Z" fill="white"/>
<path d="M129.981 35.2977C243.92 -30.4852 386.798 -0.140822 463.683 101.287L349.785 167.047C309.726 126.106 245.624 115.758 193.732 145.718C141.84 175.678 118.751 236.365 134.177 291.528L20.2789 357.287C-29.1181 239.989 16.0411 101.081 129.981 35.2977Z" fill="white"/>
</svg>
